HIERARCHY
ROOT pelvis
{
	OFFSET -0.427200 90.907800 -3.775500
	CHANNELS 6 Xposition Yposition Zposition Zrotation Yrotation Xrotation
	JOINT left_hip
	{
		OFFSET 7.742500 -7.508700 0.000000
		CHANNELS 3 Zrotation Yrotation Xrotation
		JOINT left_knee
		{
			OFFSET 0.000000 -39.672400 0.000200
			CHANNELS 3 Zrotation Yrotation Xrotation
			JOINT left_ankle
			{
				OFFSET 0.000000 -35.359100 -0.000200
				CHANNELS 3 Zrotation Yrotation Xrotation
				JOINT left_foot
				{
					OFFSET 0.000000 -4.370600 13.002000
					CHANNELS 3 Zrotation Yrotation Xrotation
				}
			}
		}
	}
	JOINT right_hip
	{
		OFFSET -7.742500 -7.508700 0.000000
		CHANNELS 3 Zrotation Yrotation Xrotation
		JOINT right_knee
		{
			OFFSET 0.000000 -39.672500 0.000200
			CHANNELS 3 Zrotation Yrotation Xrotation
			JOINT right_ankle
			{
				OFFSET 0.000000 -35.359100 -0.000200
				CHANNELS 3 Zrotation Yrotation Xrotation
				JOINT right_foot
				{
					OFFSET 0.000000 -4.370600 13.002000
					CHANNELS 3 Zrotation Yrotation Xrotation
				}
			}
		}
	}
	JOINT spine1
	{
		OFFSET 0.000000 9.624100 0.000000
		CHANNELS 3 Zrotation Yrotation Xrotation
		JOINT spine2
		{
			OFFSET 0.036700 9.000400 0.000000
			CHANNELS 3 Zrotation Yrotation Xrotation
			JOINT spine3
			{
				OFFSET -0.007800 8.692800 0.000000
				CHANNELS 3 Zrotation Yrotation Xrotation
				JOINT neck
				{
					OFFSET 0.000200 18.072900 -0.032800
					CHANNELS 3 Zrotation Yrotation Xrotation
					JOINT head
					{
						OFFSET 0.000000 16.045200 0.000000
						CHANNELS 3 Zrotation Yrotation Xrotation
					}
				}
				JOINT left_collar
				{
					OFFSET 4.774100 11.900000 0.000000
					CHANNELS 3 Zrotation Yrotation Xrotation
					JOINT left_shoulder
					{
						OFFSET 9.249900 0.237100 0.056900
						CHANNELS 3 Zrotation Yrotation Xrotation
						JOINT left_elbow
						{
							OFFSET 26.301300 0.000000 0.000000
							CHANNELS 3 Zrotation Yrotation Xrotation
							JOINT left_wrist
							{
								OFFSET 25.282000 0.000000 0.000000
								CHANNELS 3 Zrotation Yrotation Xrotation
								JOINT left_pinky1
								{
									OFFSET 9.086300 0.000000 -3.402300
									CHANNELS 3 Zrotation Yrotation Xrotation
									JOINT left_pinky2
									{
										OFFSET 2.337000 0.000000 0.000000
										CHANNELS 3 Zrotation Yrotation Xrotation
										JOINT left_pinky3
										{
											OFFSET 2.212100 0.000000 0.000000
											CHANNELS 3 Zrotation Yrotation Xrotation
										}
									}
								}
								JOINT left_ring1
								{
									OFFSET 10.747800 0.000000 -1.873100
									CHANNELS 3 Zrotation Yrotation Xrotation
									JOINT left_ring2
									{
										OFFSET 2.798800 0.000000 0.000000
										CHANNELS 3 Zrotation Yrotation Xrotation
										JOINT left_ring3
										{
											OFFSET 2.680100 0.000000 0.000000
											CHANNELS 3 Zrotation Yrotation Xrotation
										}
									}
								}
								JOINT left_middle1
								{
									OFFSET 11.441100 0.000000 0.047900
									CHANNELS 3 Zrotation Yrotation Xrotation
									JOINT left_middle2
									{
										OFFSET 3.013000 0.000000 -0.010200
										CHANNELS 3 Zrotation Yrotation Xrotation
										JOINT left_middle3
										{
											OFFSET 2.843100 0.000000 0.009900
											CHANNELS 3 Zrotation Yrotation Xrotation
										}
									}
								}
								JOINT left_index1
								{
									OFFSET 11.361600 0.000000 2.242500
									CHANNELS 3 Zrotation Yrotation Xrotation
									JOINT left_index2
									{
										OFFSET 2.984200 0.000000 0.000000
										CHANNELS 3 Zrotation Yrotation Xrotation
										JOINT left_index3
										{
											OFFSET 2.804600 0.000000 0.000000
											CHANNELS 3 Zrotation Yrotation Xrotation
										}
									}
								}
								JOINT left_thumb1
								{
									OFFSET 1.565300 -0.011300 2.107800
									CHANNELS 3 Zrotation Yrotation Xrotation
									JOINT left_thumb2
									{
										OFFSET 2.658200 0.097600 3.191300
										CHANNELS 3 Zrotation Yrotation Xrotation
										JOINT left_thumb3
										{
											OFFSET 2.183800 0.000000 2.192100
											CHANNELS 3 Zrotation Yrotation Xrotation
										}
									}
								}
							}
						}
					}
				}
				JOINT right_collar
				{
					OFFSET -4.774100 11.900200 0.000000
					CHANNELS 3 Zrotation Yrotation Xrotation
					JOINT right_shoulder
					{
						OFFSET -9.249900 0.237000 0.056900
						CHANNELS 3 Zrotation Yrotation Xrotation
						JOINT right_elbow
						{
							OFFSET -26.301300 0.000000 0.000000
							CHANNELS 3 Zrotation Yrotation Xrotation
							JOINT right_wrist
							{
								OFFSET -25.282000 0.000000 0.000000
								CHANNELS 3 Zrotation Yrotation Xrotation
								JOINT right_pinky1
								{
									OFFSET -9.086300 0.000000 -3.402300
									CHANNELS 3 Zrotation Yrotation Xrotation
									JOINT right_pinky2
									{
										OFFSET -2.337000 0.000000 0.000000
										CHANNELS 3 Zrotation Yrotation Xrotation
										JOINT right_pinky3
										{
											OFFSET -2.212200 0.000000 0.000000
											CHANNELS 3 Zrotation Yrotation Xrotation
										}
									}
								}
								JOINT right_ring1
								{
									OFFSET -10.747800 0.000000 -1.873100
									CHANNELS 3 Zrotation Yrotation Xrotation
									JOINT right_ring2
									{
										OFFSET -2.798800 0.000000 0.000000
										CHANNELS 3 Zrotation Yrotation Xrotation
										JOINT right_ring3
										{
											OFFSET -2.680100 0.000000 0.000000
											CHANNELS 3 Zrotation Yrotation Xrotation
										}
									}
								}
								JOINT right_middle1
								{
									OFFSET -11.441200 0.000000 0.047900
									CHANNELS 3 Zrotation Yrotation Xrotation
									JOINT right_middle2
									{
										OFFSET -3.013000 0.000000 -0.010200
										CHANNELS 3 Zrotation Yrotation Xrotation
										JOINT right_middle3
										{
											OFFSET -2.843100 0.000000 0.009900
											CHANNELS 3 Zrotation Yrotation Xrotation
										}
									}
								}
								JOINT right_index1
								{
									OFFSET -11.361700 0.000000 2.242500
									CHANNELS 3 Zrotation Yrotation Xrotation
									JOINT right_index2
									{
										OFFSET -2.984200 0.000000 0.000000
										CHANNELS 3 Zrotation Yrotation Xrotation
										JOINT right_index3
										{
											OFFSET -2.804500 0.000000 0.000000
											CHANNELS 3 Zrotation Yrotation Xrotation
										}
									}
								}
								JOINT right_thumb1
								{
									OFFSET -1.565300 -0.011000 2.107800
									CHANNELS 3 Zrotation Yrotation Xrotation
									JOINT right_thumb2
									{
										OFFSET -2.658300 0.097000 3.191300
										CHANNELS 3 Zrotation Yrotation Xrotation
										JOINT right_thumb3
										{
											OFFSET -2.183800 0.000000 2.192100
											CHANNELS 3 Zrotation Yrotation Xrotation
										}
									}
								}
							}
						}
					}
				}
			}
		}
	}
}
MOTION
Frames: 7
Frame Time: 0.008333
-0.427200 90.907800 -3.775500 0.000000 0.000000 0.000000 0.000000 0.000000 0.000000 0.000000 0.000000 0.000000 0.000000 0.000000 0.000000 0.000000 0.000000 0.000000 0.000000 0.000000 0.000000 0.000000 0.000000 0.000000 0.000000 0.000000 0.000000 0.000000 0.000000 0.000000 0.000000 0.000000 0.000000 0.000000 0.000000 0.000000 0.000000 0.000000 0.000000 0.000000 0.000000 0.000000 0.000000 0.000000 0.000000 0.000000 0.000000 0.000000 0.000000 0.000000 0.000000 0.000000 0.000000 0.000000 0.000000 0.000000 0.000000 0.000000 0.000000 0.000000 0.000000 0.000000 0.000000 0.000000 0.000000 0.000000 0.000000 0.000000 0.000000 0.000000 0.000000 0.000000 0.000000 0.000000 0.000000 0.000000 0.000000 0.000000 0.000000 0.000000 0.000000 0.000000 0.000000 0.000000 0.000000 0.000000 0.000000 0.000000 0.000000 0.000000 0.000000 0.000000 0.000000 0.000000 0.000000 0.000000 0.000000 0.000000 0.000000 0.000000 0.000000 0.000000 0.000000 0.000000 0.000000 0.000000 0.000000 0.000000 0.000000 0.000000 0.000000 0.000000 0.000000 0.000000 0.000000 0.000000 0.000000 0.000000 0.000000 0.000000 0.000000 0.000000 0.000000 0.000000 0.000000 0.000000 0.000000 0.000000 0.000000 0.000000 0.000000 0.000000 0.000000 0.000000 0.000000 0.000000 0.000000 0.000000 0.000000 0.000000 0.000000 0.000000 0.000000 0.000000 0.000000 0.000000 0.000000 0.000000 0.000000 0.000000 0.000000 0.000000 0.000000 0.000000 0.000000 0.000000 0.000000 0.000000 0.000000
-0.643500 90.890800 -3.813500 -5.244640 -64.933042 -2.109825 1.581615 13.028211 5.840599 -0.022377 -0.008722 9.482491 1.250482 6.275957 -8.831822 0.000000 0.000000 0.000000 -4.021408 -6.358331 -1.028963 -0.002121 0.015037 11.415968 5.161082 4.743474 -2.991618 0.000000 0.000000 0.000000 -2.374702 3.377927 20.329655 2.377311 -2.154943 6.157568 0.373688 1.590364 3.150676 -4.274384 3.484943 25.873182 0.865550 2.364498 15.189350 -19.111585 -11.805822 0.867432 -52.256619 -18.008046 13.265144 0.000346 -15.299381 -0.000049 6.204506 -2.603952 7.843636 -30.946801 28.364663 -0.562939 -23.594093 0.000003 0.000000 -27.490195 0.000003 0.000000 -19.266383 1.848054 7.635752 -21.842959 0.000003 0.000000 -31.757274 0.000003 0.000000 -51.172823 1.936955 -8.584448 -26.901960 0.000003 0.000000 -23.378247 0.000003 0.000000 -20.777473 0.579845 6.409655 -23.703764 0.000003 0.000000 -12.794601 0.000003 0.000000 0.453991 9.522476 20.760170 -18.494448 11.327482 -35.142443 7.843882 5.189389 24.757876 21.461133 14.768906 3.408379 47.705232 16.125024 8.877547 -0.000355 23.431283 -0.000077 -0.720628 0.926183 6.695165 58.665737 5.723722 -13.773775 36.771945 0.000003 0.000000 29.627445 0.000003 0.000000 41.606885 1.314937 -1.020121 31.850490 0.000003 0.000000 37.177890 0.000003 0.000000 40.757270 -2.832600 -6.992473 22.436727 0.000003 0.000000 21.934553 0.000003 0.000000 27.264830 -0.657287 8.712779 43.875037 0.000003 0.000000 14.574282 -0.000004 0.000000 -2.704893 -0.612071 32.675884 27.303186 -18.178539 -37.994619 -7.556417 2.028446 25.632922
-0.711800 90.884500 -3.828700 -5.186151 -64.865955 -2.150964 1.605123 13.017971 5.831593 -0.022008 -0.008850 9.546677 1.201352 6.249563 -8.891198 0.000000 0.000000 0.000000 -3.982369 -6.378865 -1.064973 -0.002563 0.015557 11.539905 5.099120 4.777357 -3.062741 0.000000 0.000000 0.000000 -2.360684 3.378929 20.269924 2.387576 -2.159804 6.158138 0.377536 1.583664 3.173234 -4.263228 3.519863 25.888381 0.839579 2.363022 15.275805 -19.121971 -11.793333 0.885810 -52.251879 -17.994648 13.211108 0.000346 -15.282032 -0.000049 6.182009 -2.601847 7.773907 -30.946801 28.364663 -0.562939 -23.594093 0.000003 0.000000 -27.490195 0.000003 0.000000 -19.266383 1.848054 7.635752 -21.842959 0.000003 0.000000 -31.757274 0.000003 0.000000 -51.172823 1.936955 -8.584448 -26.901960 0.000003 0.000000 -23.378247 0.000003 0.000000 -20.777473 0.579845 6.409655 -23.703764 0.000003 0.000000 -12.794601 0.000003 0.000000 0.453991 9.522476 20.760170 -18.494448 11.327482 -35.142443 7.843882 5.189389 24.757876 21.495222 14.730702 3.423668 47.725387 16.133221 8.866296 -0.000355 23.342593 -0.000077 -0.741661 0.913195 6.655030 58.665737 5.723722 -13.773775 36.771945 0.000003 0.000000 29.627445 0.000003 0.000000 41.606885 1.314937 -1.020121 31.850490 0.000003 0.000000 37.177890 0.000003 0.000000 40.757270 -2.832600 -6.992473 22.436727 0.000003 0.000000 21.934553 0.000003 0.000000 27.264830 -0.657287 8.712779 43.875037 0.000003 0.000000 14.574282 -0.000004 0.000000 -2.704893 -0.612071 32.675884 27.303186 -18.178539 -37.994619 -7.556417 2.028446 25.632922
-0.780200 90.878300 -3.843900 -5.127662 -64.798868 -2.192104 1.628631 13.007731 5.822588 -0.021639 -0.008978 9.610864 1.152222 6.223169 -8.950574 0.000000 0.000000 0.000000 -3.943329 -6.399398 -1.100982 -0.003005 0.016077 11.663843 5.037159 4.811239 -3.133864 0.000000 0.000000 0.000000 -2.346667 3.379930 20.210193 2.397841 -2.164664 6.158709 0.381384 1.576965 3.195792 -4.252072 3.554783 25.903580 0.813609 2.361547 15.362261 -19.132357 -11.780844 0.904188 -52.247140 -17.981249 13.157072 0.000346 -15.264684 -0.000049 6.159512 -2.599742 7.704177 -30.946801 28.364663 -0.562939 -23.594093 0.000003 0.000000 -27.490195 0.000003 0.000000 -19.266383 1.848054 7.635752 -21.842959 0.000003 0.000000 -31.757274 0.000003 0.000000 -51.172823 1.936955 -8.584448 -26.901960 0.000003 0.000000 -23.378247 0.000003 0.000000 -20.777473 0.579845 6.409655 -23.703764 0.000003 0.000000 -12.794601 0.000003 0.000000 0.453991 9.522476 20.760170 -18.494448 11.327482 -35.142443 7.843882 5.189389 24.757876 21.529312 14.692498 3.438958 47.745542 16.141418 8.855045 -0.000355 23.253902 -0.000076 -0.762694 0.900206 6.614895 58.665737 5.723722 -13.773775 36.771945 0.000003 0.000000 29.627445 0.000003 0.000000 41.606885 1.314937 -1.020121 31.850490 0.000003 0.000000 37.177890 0.000003 0.000000 40.757270 -2.832600 -6.992473 22.436727 0.000003 0.000000 21.934553 0.000003 0.000000 27.264830 -0.657287 8.712779 43.875037 0.000003 0.000000 14.574282 -0.000004 0.000000 -2.704893 -0.612071 32.675884 27.303186 -18.178539 -37.994619 -7.556417 2.028446 25.632922
-0.848500 90.872000 -3.859100 -5.069172 -64.731782 -2.233243 1.652139 12.997491 5.813582 -0.021269 -0.009106 9.675050 1.103093 6.196774 -9.009950 0.000000 0.000000 0.000000 -3.904289 -6.419932 -1.136992 -0.003447 0.016596 11.787781 4.975197 4.845122 -3.204987 0.000000 0.000000 0.000000 -2.332649 3.380932 20.150462 2.408106 -2.169525 6.159279 0.385233 1.570265 3.218350 -4.240916 3.589702 25.918779 0.787638 2.360071 15.448716 -19.142742 -11.768354 0.922566 -52.242400 -17.967851 13.103036 0.000345 -15.247335 -0.000048 6.137016 -2.597636 7.634447 -30.946801 28.364663 -0.562939 -23.594093 0.000003 0.000000 -27.490195 0.000003 0.000000 -19.266383 1.848054 7.635752 -21.842959 0.000003 0.000000 -31.757274 0.000003 0.000000 -51.172823 1.936955 -8.584448 -26.901960 0.000003 0.000000 -23.378247 0.000003 0.000000 -20.777473 0.579845 6.409655 -23.703764 0.000003 0.000000 -12.794601 0.000003 0.000000 0.453991 9.522476 20.760170 -18.494448 11.327482 -35.142443 7.843882 5.189389 24.757876 21.563401 14.654294 3.454247 47.765697 16.149615 8.843795 -0.000354 23.165212 -0.000076 -0.783726 0.887218 6.574760 58.665737 5.723722 -13.773775 36.771945 0.000003 0.000000 29.627445 0.000003 0.000000 41.606885 1.314937 -1.020121 31.850490 0.000003 0.000000 37.177890 0.000003 0.000000 40.757270 -2.832600 -6.992473 22.436727 0.000003 0.000000 21.934553 0.000003 0.000000 27.264830 -0.657287 8.712779 43.875037 0.000003 0.000000 14.574282 -0.000004 0.000000 -2.704893 -0.612071 32.675884 27.303186 -18.178539 -37.994619 -7.556417 2.028446 25.632922
-0.916900 90.865700 -3.874200 -5.010683 -64.664695 -2.274383 1.675647 12.987250 5.804576 -0.020900 -0.009234 9.739236 1.053963 6.170380 -9.069326 0.000000 0.000000 0.000000 -3.865250 -6.440465 -1.173002 -0.003889 0.017116 11.911718 4.913235 4.879005 -3.276110 0.000000 0.000000 0.000000 -2.318631 3.381934 20.090731 2.418371 -2.174385 6.159849 0.389081 1.563565 3.240908 -4.229761 3.624622 25.933977 0.761668 2.358595 15.535171 -19.153128 -11.755865 0.940943 -52.237660 -17.954452 13.049000 0.000345 -15.229987 -0.000048 6.114519 -2.595531 7.564718 -30.946801 28.364663 -0.562939 -23.594093 0.000003 0.000000 -27.490195 0.000003 0.000000 -19.266383 1.848054 7.635752 -21.842959 0.000003 0.000000 -31.757274 0.000003 0.000000 -51.172823 1.936955 -8.584448 -26.901960 0.000003 0.000000 -23.378247 0.000003 0.000000 -20.777473 0.579845 6.409655 -23.703764 0.000003 0.000000 -12.794601 0.000003 0.000000 0.453991 9.522476 20.760170 -18.494448 11.327482 -35.142443 7.843882 5.189389 24.757876 21.597490 14.616090 3.469536 47.785852 16.157812 8.832544 -0.000354 23.076522 -0.000075 -0.804759 0.874230 6.534625 58.665737 5.723722 -13.773775 36.771945 0.000003 0.000000 29.627445 0.000003 0.000000 41.606885 1.314937 -1.020121 31.850490 0.000003 0.000000 37.177890 0.000003 0.000000 40.757270 -2.832600 -6.992473 22.436727 0.000003 0.000000 21.934553 0.000003 0.000000 27.264830 -0.657287 8.712779 43.875037 0.000003 0.000000 14.574282 -0.000004 0.000000 -2.704893 -0.612071 32.675884 27.303186 -18.178539 -37.994619 -7.556417 2.028446 25.632922
-0.998900 90.858400 -3.896600 -4.921393 -64.606183 -2.337613 1.665241 12.873372 5.856925 -0.020606 -0.009234 9.671106 1.017067 6.148828 -9.063438 0.000000 0.000000 0.000000 -3.843240 -6.417879 -1.212169 -0.004464 0.017677 12.044583 4.852478 4.902576 -3.398337 0.000000 0.000000 0.000000 -2.300120 3.374669 20.031573 2.418697 -2.189947 6.170842 0.391732 1.565472 3.234910 -4.213683 3.635986 25.979585 0.783525 2.356036 15.542869 -19.141380 -11.741478 0.944425 -52.243046 -17.915025 13.073572 0.000345 -15.223541 -0.000048 6.111049 -2.602906 7.569821 -30.946801 28.364663 -0.562939 -23.594093 0.000003 0.000000 -27.490195 0.000003 0.000000 -19.266383 1.848054 7.635752 -21.842959 0.000003 0.000000 -31.757274 0.000003 0.000000 -51.172823 1.936955 -8.584448 -26.901960 0.000003 0.000000 -23.378247 0.000003 0.000000 -20.777473 0.579845 6.409655 -23.703764 0.000003 0.000000 -12.794601 0.000003 0.000000 0.453991 9.522476 20.760170 -18.494448 11.327482 -35.142443 7.843882 5.189389 24.757876 21.576065 14.598841 3.477003 47.845076 16.130971 8.911771 -0.000354 23.038326 -0.000075 -0.769885 0.858064 6.491541 58.665737 5.723722 -13.773775 36.771945 0.000003 0.000000 29.627445 0.000003 0.000000 41.606885 1.314937 -1.020121 31.850490 0.000003 0.000000 37.177890 0.000003 0.000000 40.757270 -2.832600 -6.992473 22.436727 0.000003 0.000000 21.934553 0.000003 0.000000 27.264830 -0.657287 8.712779 43.875037 0.000003 0.000000 14.574282 -0.000004 0.000000 -2.704893 -0.612071 32.675884 27.303186 -18.178539 -37.994619 -7.556417 2.028446 25.632922
